<svg width="573" height="296" xmlns="http://www.w3.org/2000/svg" xmlns:svg="http://www.w3.org/2000/svg">
 <defs>
  <linearGradient id="PSgrad_0" x1="0%" x2="22.495%" y1="97.437%" y2="0%">
   <stop offset="0%" stop-color="rgb(255,143,90)"/>
   <stop offset="99%" stop-color="rgb(255,47,150)"/>
  </linearGradient>
 </defs>
 <g class="layer">
  <title>Layer 1</title>
  <path fill="url(#PSgrad_0)" d="m394.819,32.771c106.686,-41.662 207.36801,-41.79 291.543,-10.516c84.39203,31.02 152.27899,93.443 198.39001,171.019c44.24701,78.347 44.20001,162.50099 8.06299,230.576c-36.63702,69.09 -97.61603,121.17899 -180.71198,158.35397c-44.00806,18.71802 -90.26605,31.54199 -149.07202,39.41302c-58.03101,7.75598 -128.61099,10.56097 -203.39001,6.56c-148.39799,-7.69702 -314.71399,-43.83099 -349.78799,-125.336c-19.876,-40.47202 -7.4,-86.86499 17.312,-133.552c25.117,-46.75601 62.47,-93.806 101.688,-137.16501c39.62401,-43.42799 81.11301,-83.16501 123.82701,-116.86399c43.11998,-33.76801 87.463,-61.499 142.13899,-82.489l0,0z" id="svg_2" transform="translate(-5, -32) translate(0, 22) translate(0, -36) translate(64, 23) translate(37, 7) translate(-11, -65) translate(-11, -24) translate(28, -141) translate(-34, -5) translate(-17, 5) translate(-250, 143) translate(2, 5) translate(-108, -4) translate(48, 1) translate(91, -6) translate(-254, 200) translate(61, -492) translate(3, 4) translate(-58, 171) translate(-475, -91) translate(61) translate(-29, 6) translate(227.556) translate(165.926, 2.37037) translate(33.1852, -2.37037) translate(-21.3333, -156.444) translate(7.11111, 56.8889) translate(263.111, 42.6667) translate(-116.148, -929.185) translate(-2.37037, -4.74074) translate(256, 92.4444) translate(-189.63, 884.148) translate(4.74074) translate(4.74074, 2.37037) translate(-7.11111, 30.8148) translate(-1.33333, -86.6667) translate(-26.6667, 5.33333) translate(37.3333, 16) translate(-62.2222, -12.4444) translate(-10.6667, 8.88889) translate(124.444, 1.77778) translate(65.7778, 12.4444) translate(-12.4444, -1.77778) translate(23.1111, 3.55556) translate(0, 1.77778) translate(39.1111, -10.6667) translate(81.7778, 46.2222) translate(19, 51) translate(0.0078125, 629.992) scale(1, 1.18061) translate(-0.0078125, -629.992) translate(0.0078125, 629.992) scale(1, 0.966136) translate(-0.0078125, -629.992) translate(0.0078125, 629.992) scale(1, 1.01693) translate(-0.0078125, -629.992) translate(0.0078125, 629.992) scale(1, 1.00564) translate(-0.0078125, -629.992) translate(0.0078125, 629.992) scale(1.00774, 1.00847) translate(-0.0078125, -629.992) translate(0.0078125, 629.992) scale(1, 1.01129) translate(-0.0078125, -629.992) translate(0.0078125, 629.992) scale(1.08318, 1.00564) translate(-0.0078125, -629.992) translate(0.0078125, 629.992) scale(1, 0.994356) translate(-0.0078125, -629.992) translate(0.0078125, 629.992) scale(1, 1.00635) translate(-0.0078125, -629.992) translate(919.004, 629.992) scale(1.28292, 0.996825) translate(-919.004, -629.992) translate(919.004, 0.015625) scale(0.992746, 1) translate(-919.004, -0.015625) translate(0.0078125, 629.992) scale(1, 0.883594) translate(-0.0078125, -629.992) translate(0.0078125, 0.015625) scale(1, 1.03598) translate(-0.0078125, -0.015625) translate(0.0078125, 629.992) scale(1.27599, 1.01129) translate(-0.0078125, -629.992) translate(0.0078125, 629.992) scale(1, 1.04515) translate(-0.0078125, -629.992) translate(0.0078125, 0.015625) scale(0.74207, 1) translate(-0.0078125, -0.015625) translate(0.0078125, 629.992) scale(1.03353, 1) translate(-0.0078125, -629.992) translate(0.0078125, 629.992) scale(1, 1.48162) translate(-0.0078125, -629.992) translate(0.0078125, 629.992) scale(1, 0.717803) translate(-0.0078125, -629.992) translate(0.0078125, 0.015625) scale(0.773021, 1) translate(-0.0078125, -0.015625) translate(0.0078125, 629.992) scale(1.27856, 1.04891) translate(-0.0078125, -629.992) translate(0.0078125, 629.992) scale(1, 1.06396) translate(-0.0078125, -629.992) translate(0.0078125, 629.992) scale(1, 0.984949) translate(-0.0078125, -629.992) translate(0.0078125, 629.992) scale(1, 0.834444) translate(-0.0078125, -629.992) translate(919.004, 0.015625) scale(1.02321, 1) translate(-919.004, -0.015625) translate(0.0078125, 0.015625) scale(1, 1.04515) translate(-0.0078125, -0.015625) translate(919.004, 0.015625) scale(1.08254, 1) translate(-919.004, -0.015625) translate(919.004, 0.015625) scale(1.04901, 1) translate(-919.004, -0.015625) translate(919.004, 0.015625) scale(1.02321, 1) translate(-919.004, -0.015625) translate(0.0078125, 0.015625) scale(1, 1.00753) translate(-0.0078125, -0.015625) translate(919.004, 0.015625) scale(1.11091, 1) translate(-919.004, -0.015625) translate(0.0078125, 629.992) scale(1, 1.00376) translate(-0.0078125, -629.992) translate(0.0078125, 0.015625) scale(0.930359, 1) translate(-0.0078125, -0.015625) translate(0.0078125, 0.015625) scale(1, 0.939798) translate(-0.0078125, -0.015625) translate(0.0078125, 0.015625) scale(0.749807, 1) translate(-0.0078125, -0.015625) translate(0.0078125, 0.015625) scale(1, 1.00753) translate(-0.0078125, -0.015625) translate(0.0078125, 0.015625) scale(1, 1.09783) translate(-0.0078125, -0.015625) translate(919.004, 629.992) scale(1.10059, 1.1204) translate(-919.004, -629.992) translate(919.004, 629.992) scale(0.881352, 0.894646) translate(-919.004, -629.992) translate(0.0078125, 629.992) scale(1, 0.484108) translate(-0.0078125, -629.992) translate(919.004, 0.015625) scale(0.556037, 1) translate(-919.004, -0.015625) translate(0.0078125, 629.992) scale(1, 1.50161) translate(-0.0078125, -629.992) translate(919.004, 0.015625) scale(1.15996, 1) translate(-919.004, -0.015625) translate(0.0078125, 0.015625) scale(1, 1.08413) translate(-0.0078125, -0.015625) translate(0.0078125, 0.015625) scale(1.29815, 1) translate(-0.0078125, -0.015625) translate(0.0078125, 629.992) scale(1, 1.00317) translate(-0.0078125, -629.992) translate(0.0078125, 0.015625) scale(0.980413, 1) translate(-0.0078125, -0.015625) translate(919.004, 0.015625) scale(0.968444, 1) translate(-919.004, -0.015625) translate(0.0078125, 0.015625) scale(1.01306, 1) translate(-0.0078125, -0.015625) translate(0.0078125, 629.992) scale(1, 0.857138) translate(-0.0078125, -629.992) translate(0.0078125, 0.015625) scale(1.10446, 1) translate(-0.0078125, -0.015625) translate(0.0078125, 629.992) scale(1, 0.91587) translate(-0.0078125, -629.992) translate(0.0078125, 629.992) scale(1.11208, 0.993651) translate(-0.0078125, -629.992) translate(0.0078125, 0.015625) scale(1.00544, 1) translate(-0.0078125, -0.015625) translate(0.0078125, 629.992) scale(1, 1.03175) translate(-0.0078125, -629.992) translate(0.0078125, 629.992) scale(0.810663, 0.94603) translate(-0.0078125, -629.992) translate(0.0078125, 629.992) scale(0.926006, 1.04603) translate(-0.0078125, -629.992) translate(0.0078125, 629.992) scale(1.09467, 1.04445) translate(-0.0078125, -629.992) translate(0.0078125, 629.992) scale(1.08923, 0.998413) translate(-0.0078125, -629.992) translate(0.0078125, 629.992) scale(1.06746, 1.00159) translate(-0.0078125, -629.992) translate(0.0078125, 629.992) scale(1.17954, 0.996825) translate(-0.0078125, -629.992) translate(0.0078125, 629.992) scale(0.713818, 1.00317) translate(-0.0078125, -629.992) translate(0.0078125, 629.992) scale(1.04461, 1.00159) translate(-0.0078125, -629.992) translate(0.0078125, 629.992) scale(1.02176, 1) translate(-0.0078125, -629.992) translate(919.004, 629.992) scale(1.00326, 1) translate(-919.004, -629.992)"/>
 </g>
</svg>