<svg width="919" height="645" xmlns="http://www.w3.org/2000/svg" xmlns:svg="http://www.w3.org/2000/svg">
 <defs>
  <linearGradient id="PSgrad_0" x1="0%" x2="22.495%" y1="97.437%" y2="0%">
   <stop offset="0%" stop-color="rgb(255,143,90)"/>
   <stop offset="99%" stop-color="rgb(255,47,150)"/>
  </linearGradient>
 </defs>
 <g class="layer">
  <title>Layer 1</title>
  <path fill="url(#PSgrad_0)" d="m394.819,32.771c106.686,-41.662 207.36801,-41.79 291.543,-10.516c84.39203,31.02 152.27899,93.443 198.39001,171.019c44.24701,78.347 44.20001,162.50099 8.06299,230.576c-36.63702,69.09 -97.61603,121.17899 -180.71198,158.35397c-44.00806,18.71802 -90.26605,31.54199 -149.07202,39.41302c-58.03101,7.75598 -128.61099,10.56097 -203.39001,6.56c-148.39799,-7.69702 -314.71399,-43.83099 -349.78799,-125.336c-19.876,-40.47202 -7.4,-86.86499 17.312,-133.552c25.117,-46.75601 62.47,-93.806 101.688,-137.16501c39.62401,-43.42799 81.11301,-83.16501 123.82701,-116.86399c43.11998,-33.76801 87.463,-61.499 142.13899,-82.489l0,0z" id="svg_2" transform="translate(0.0078125, 0.015625) scale(1, 1.02222) translate(-0.0078125, -0.015625)"/>
 </g>
</svg>